<?xml version="1.0" encoding="UTF-8" standalone="no"?>
<svg
        xmlns:dc="http://purl.org/dc/elements/1.1/"
        xmlns:cc="http://creativecommons.org/ns#"
        xmlns:rdf="http://www.w3.org/1999/02/22-rdf-syntax-ns#"
        xmlns="http://www.w3.org/2000/svg"
        xmlns:xlink="http://www.w3.org/1999/xlink"
        viewBox="0 0 3860.84 1831.51"
        version="1.1"
        id="svg136">
    <metadata
            id="metadata140">
        <rdf:RDF>
            <cc:Work
                    rdf:about="">
                <dc:format>image/svg+xml</dc:format>
                <dc:type
                        rdf:resource="http://purl.org/dc/dcmitype/StillImage"/>
                <dc:title>devops-loop
                </dc:title>
            </cc:Work>
        </rdf:RDF>
    </metadata>
    <defs
            id="defs12">
        <style
                id="style10">.cls-1{fill:#376cb5;}.cls-2{fill:#00a6a6;}.cls-3{fill:#f68c39;}.cls-4{fill:#644ea0;}.cls-5{fill:#50be98;}.cls-6{fill:#fff;}.cls-7{fill:#515251;}
        </style>
        <clipPath
                clipPathUnits="userSpaceOnUse"
                id="clipPath860">
            <use
                    x="0"
                    y="0"
                    xlink:href="#g856"
                    id="use862"
                    width="100%"
                    height="100%"/>
        </clipPath>
    </defs>
    <title
            id="title14">devops-loop
    </title>
    <g
            id="segments">
        <path
                class="cls-1"
                d="m 2415.85,630.71 25.27,-246.8 -236.6,-24.24 -948.74,975.49 205.31,21 -28.6,279.18 c 983.35,-1004.6 607.0084,-633.217 983.36,-1004.63 z"
                id="path16"
                style="image-rendering:auto"/>
        <path
                class="cls-2"
                d="M3516,406.77l-235.83,41.94c-86.32-66.4-185.14-105.4-276.45-105.4-178.63,0-350.11,78.79-587.88,287.43l25.27-246.8-236.6-24.24C2280.72,293.62,2351,239.26,2418,194.31,2615.43,61.76,2801.56,0,3003.73,0c160.86,0,325.75,58.61,469.13,164.19Z"
                id="path18"
                style="fill:#6efaa7;fill-opacity:1"/>
        <path
                class="cls-3"
                d="M3860.84,910.8A910.5,910.5,0,0,1,3788.5,1267a928.5,928.5,0,0,1-81.87,152.54l-221.91,25.84-31.54-270.75a575.45,575.45,0,0,0,64.35-263.79c0-191-103.74-359.34-237.35-462.09L3516,406.77l-43.15-242.58a966.71,966.71,0,0,1,119.38,104.05c82,84.1,147,180.33,193.21,286C3835.46,668.68,3860.84,788.66,3860.84,910.8Z"
                id="path20"
                style="fill:#fcf74e;fill-opacity:1"/>
        <path
                class="cls-4"
                d="m 3706.63,1419.5 c -33.1184,49.9224 -70.9374,96.5616 -112.94,139.28 -83.35,84.83 -179.94,151.69 -287.11,198.69 -112,49.13 -230.12,74 -350.95,74 -122.39,0 -253.7,-36.45 -390.35,-108.33 -36.9933,-19.4733 -74.6867,-41.7133 -113.08,-66.72 -19.8933,-12.88 -39.95,-26.5167 -60.17,-40.91 l 15.5364,-231.4162 214.0636,-26.9838 h 0.07 c 31.5293,21.4012 64.1319,41.177 97.68,59.25 88.45,47.43 168.08,71.81 236.25,71.81 212.82,0 402.56,-129.08 497.55,-313.61 l 31.54,270.75 z"
                id="path22"
                style="fill:#eb8042;fill-opacity:1"/>
        <path
                id="path30"
                class="cls-5"
                style="fill:#46b7fa;fill-opacity:1"
                d="M 1524 262.85938 L 1277.3691 266.4707 L 1280.9102 509.33984 C 1309.4569 530.39984 1338.4208 553.37 1367.8008 578.25 C 1494.8608 686.02 1603.8696 807.95 1676.0996 893.25 C 1760.3396 988.95 2101.8107 1377.5203 2237.2207 1493.8203 C 2289.634 1538.827 2341.236 1579.3991 2392.0293 1615.5391 L 2407.5664 1384.0938 L 2621.6309 1357.1699 C 2440.2611 1231.4172 2056.3009 806.64167 1911.7793 640.53906 C 1832.7493 548.93906 1721.2298 427.83016 1589.8398 316.41016 C 1567.8265 297.73683 1545.88 279.88605 1524 262.85938 z "/>
        <path
                class="cls-6"
                d="M1277.37,266.47l3.54,242.87c-147.7-108.94-283.47-166-396.72-166-98.29,0-223.62,34-328.91,113l-213.63,2.83-3.58-270.48C493.66,68.2,689.7,0,884.19,0c201,0,415.93,88.38,639.79,262.86Z"
                id="path28"
                style="fill:#eb8042;fill-opacity:1"/>
        <path
                class="cls-7"
                d="M343.31,910.8c0,177.82,64.91,300.66,134.53,381.25l-15,194.1-287-22.16A874.74,874.74,0,0,1,85.44,1311.8C28.74,1189.73,0,1054.82,0,910.8,0,767,27.5,633.14,81.72,513.06A847.84,847.84,0,0,1,294.79,224.43q21-18.59,43.28-35.79l3.58,270.48,213.63-2.83C436.54,545.37,343.31,691.65,343.31,910.8Z"
                id="path26"
                style="fill:#fcf74e;fill-opacity:1"/>
        <path
                class="cls-8"
                d="M1461.09,1356.19l-28.6,279.18q-22.18,17.94-44.38,34.29c-154.35,113.44-305,161.85-503.92,161.85-201.6,0-419-85.79-581.58-229.45A894,894,0,0,1,175.83,1464l287,22.16,15-194.1A546.39,546.39,0,0,0,530,1344.83c119.6,105.71,261.38,143.37,354.22,143.37,146.06,0,236.92-33,371.59-153Z"
                id="path24"
                style="fill:#6efaa7;fill-opacity:1"/>
        <text
                xml:space="preserve"
                style="font-style:normal;font-variant:normal;font-weight:normal;font-stretch:normal;font-size:192px;line-height:1.25;font-family:sans-serif;-inkscape-font-specification:'sans-serif, Normal';font-variant-ligatures:normal;font-variant-caps:normal;font-variant-numeric:normal;font-variant-east-asian:normal;fill:#000000;fill-opacity:1;stroke:none"
                x="408.25656"
                y="953.77173"
                id="text144">
              <tspan
                      id="tspan142"
                      x="408.25656"
                      y="953.77173">DevCulture</tspan></text>
        <text
                xml:space="preserve"
                style="font-style:normal;font-variant:normal;font-weight:normal;font-stretch:normal;font-size:192px;line-height:1.25;font-family:sans-serif;-inkscape-font-specification:'sans-serif, Normal';font-variant-ligatures:normal;font-variant-caps:normal;font-variant-numeric:normal;font-variant-east-asian:normal;fill:#000000;fill-opacity:1;stroke:none"
                x="2566.8916"
                y="931.80072"
                id="text144-4"><tspan
         id="tspan142-3"
         x="2566.8916"
         y="931.80072">Quotes</tspan></text>
    </g>
</svg>
