<?xml version="1.0" encoding="UTF-8" standalone="no"?>
<svg
        xmlns:dc="http://purl.org/dc/elements/1.1/"
        xmlns:cc="http://creativecommons.org/ns#"
        xmlns:rdf="http://www.w3.org/1999/02/22-rdf-syntax-ns#"
        xmlns:sodipodi="http://sodipodi.sourceforge.net/DTD/sodipodi-0.dtd"
        xmlns:inkscape="http://www.inkscape.org/namespaces/inkscape"
        xmlns="http://www.w3.org/2000/svg"
        viewBox="0 0 3860.84 1831.51"
        version="1.1"
        id="svg136"
        sodipodi:docname="devops-loop.svg"
        inkscape:version="1.0.1 (c497b03c, 2020-09-10)">
  <metadata
          id="metadata140">
    <rdf:RDF>
      <cc:Work
              rdf:about="">
        <dc:format>image/svg+xml</dc:format>
        <dc:type
                rdf:resource="http://purl.org/dc/dcmitype/StillImage"/>
      </cc:Work>
    </rdf:RDF>
  </metadata>
  <sodipodi:namedview
          pagecolor="#ffffff"
          bordercolor="#666666"
          borderopacity="1"
          objecttolerance="10"
          gridtolerance="10"
          guidetolerance="10"
          inkscape:pageopacity="0"
          inkscape:pageshadow="2"
          inkscape:window-width="2048"
          inkscape:window-height="1227"
          id="namedview138"
          showgrid="false"
          showguides="true"
          inkscape:guide-bbox="true"
          inkscape:zoom="0.28413506"
          inkscape:cx="1792.0396"
          inkscape:cy="915.755"
          inkscape:window-x="0"
          inkscape:window-y="25"
          inkscape:window-maximized="1"
          inkscape:current-layer="Objects"
          inkscape:document-rotation="0">
    <sodipodi:guide
            position="-38.713983,955.16619"
            orientation="0,-1"
            id="guide164"/>
  </sodipodi:namedview>
  <defs
          id="defs12">
    <style
            id="style10">.cls-1{fill:#376cb5;}.cls-2{fill:#00a6a6;}.cls-3{fill:#f68c39;}.cls-4{fill:#644ea0;}.cls-5{fill:#50be98;}.cls-6{fill:#fff;}.cls-7{fill:#515251;}
    </style>
  </defs>
  <title
          id="title14">devops-loop
  </title>
  <g
          id="Layer_2"
          data-name="Layer 2">
    <g
            id="Objects">
      <path
              class="cls-1"
              d="M2621.63,1357.14q-77.15-52.08-160.72-123.77c-132-113.36-247.22-239.5-325.69-330,104-108.65,196.47-198.8,280.63-272.66l25.27-246.8-236.6-24.24c-88.31,76.59-184.54,169-292.74,280.84L1676.1,893.25c-25.09,27.46-49,53.76-71.53,78.5C1451,1140.47,1344,1256.52,1255.78,1335.16l205.31,21-28.6,279.18c122.07-98.79,246.9-235.9,425.92-432.51,13.88-15.25,27.89-30.61,42.12-46.25,84.24,95.7,201.28,220.92,336.69,337.22q78.42,67.37,154.81,121.72l-3.71-255Z"
              id="path16"/>
      <path
              class="cls-2"
              d="M3516,406.77l-235.83,41.94c-86.32-66.4-185.14-105.4-276.45-105.4-178.63,0-350.11,78.79-587.88,287.43l25.27-246.8-236.6-24.24C2280.72,293.62,2351,239.26,2418,194.31,2615.43,61.76,2801.56,0,3003.73,0c160.86,0,325.75,58.61,469.13,164.19Z"
              id="path18"
              style="fill:#6efaa7;fill-opacity:1"/>
      <path
              class="cls-3"
              d="M3860.84,910.8A910.5,910.5,0,0,1,3788.5,1267a928.5,928.5,0,0,1-81.87,152.54l-221.91,25.84-31.54-270.75a575.45,575.45,0,0,0,64.35-263.79c0-191-103.74-359.34-237.35-462.09L3516,406.77l-43.15-242.58a966.71,966.71,0,0,1,119.38,104.05c82,84.1,147,180.33,193.21,286C3835.46,668.68,3860.84,788.66,3860.84,910.8Z"
              id="path20"
              style="fill:#fcf74e;fill-opacity:1"/>
      <path
              class="cls-4"
              d="M3706.63,1419.5a939.21,939.21,0,0,1-112.94,139.28c-83.35,84.83-179.94,151.69-287.11,198.69-112,49.13-230.12,74-350.95,74-122.39,0-253.7-36.45-390.35-108.33q-55.49-29.21-113.08-66.72-29.84-19.32-60.17-40.91l-3.71-255,233.31-3.4h.07a1118.38,1118.38,0,0,0,97.68,59.25c88.45,47.43,168.08,71.81,236.25,71.81,212.82,0,402.56-129.08,497.55-313.61l31.54,270.75Z"
              id="path22"
              style="fill:#eb8042;fill-opacity:1"/>
      <path
              class="cls-4"
              d="M1461.09,1356.19l-28.6,279.18q-22.18,17.94-44.38,34.29c-154.35,113.44-305,161.85-503.92,161.85-201.6,0-419-85.79-581.58-229.45A894,894,0,0,1,175.83,1464l287,22.16,15-194.1A546.39,546.39,0,0,0,530,1344.83c119.6,105.71,261.38,143.37,354.22,143.37,146.06,0,236.92-33,371.59-153Z"
              id="path24"
              style="fill:#6efaa7;fill-opacity:1"/>
      <path
              class="cls-3"
              d="M343.31,910.8c0,177.82,64.91,300.66,134.53,381.25l-15,194.1-287-22.16A874.74,874.74,0,0,1,85.44,1311.8C28.74,1189.73,0,1054.82,0,910.8,0,767,27.5,633.14,81.72,513.06A847.84,847.84,0,0,1,294.79,224.43q21-18.59,43.28-35.79l3.58,270.48,213.63-2.83C436.54,545.37,343.31,691.65,343.31,910.8Z"
              id="path26"
              style="fill:#fcf74e;fill-opacity:1"/>
      <path
              class="cls-2"
              d="M1277.37,266.47l3.54,242.87c-147.7-108.94-283.47-166-396.72-166-98.29,0-223.62,34-328.91,113l-213.63,2.83-3.58-270.48C493.66,68.2,689.7,0,884.19,0c201,0,415.93,88.38,639.79,262.86Z"
              id="path28"
              style="fill:#eb8042;fill-opacity:1"/>
      <path
              class="cls-5"
              d="M1911.78,640.54,1676.1,893.25c-72.23-85.3-181.24-207.23-308.3-315q-44.07-37.32-86.89-68.91l-3.54-242.87L1524,262.86q32.82,25.54,65.84,53.55C1721.23,427.83,1832.75,548.94,1911.78,640.54Z"
              id="path30"
              style="fill:#46b7fa;fill-opacity:1"/>
      <path
              class="cls-5"
              d="M2388.32,1360.54l3.71,255q-76.19-54.21-154.81-121.72c-135.41-116.3-252.45-241.52-336.69-337.22L2135.22,903.4c78.47,90.47,193.67,216.61,325.69,330q83.45,71.67,160.72,123.77Z"
              id="path32"
              style="fill:#46b7fa;fill-opacity:1"/>
      <text
              xml:space="preserve"
              style="font-style:normal;font-variant:normal;font-weight:normal;font-stretch:normal;font-size:192px;line-height:1.25;font-family:sans-serif;-inkscape-font-specification:'sans-serif, Normal';font-variant-ligatures:normal;font-variant-caps:normal;font-variant-numeric:normal;font-variant-east-asian:normal;fill:#000000;fill-opacity:1;stroke:none"
              x="408.25656"
              y="953.77173"
              id="text144"><tspan
           sodipodi:role="line"
           id="tspan142"
           x="408.25656"
           y="953.77173">DevCulture</tspan></text>
      <text
              xml:space="preserve"
              style="font-style:normal;font-variant:normal;font-weight:normal;font-stretch:normal;font-size:192px;line-height:1.25;font-family:sans-serif;-inkscape-font-specification:'sans-serif, Normal';font-variant-ligatures:normal;font-variant-caps:normal;font-variant-numeric:normal;font-variant-east-asian:normal;fill:#000000;fill-opacity:1;stroke:none"
              x="2566.8916"
              y="931.80072"
              id="text144-4"
              inkscape:transform-center-x="1865.3101"
              inkscape:transform-center-y="91.505779"><tspan
           sodipodi:role="line"
           id="tspan142-3"
           x="2566.8916"
           y="931.80072">Quotes</tspan></text>
    </g>
  </g>
</svg>
